# xmcd CD database file
#
# Track frame offsets:
#	150
#	12456
#	26312
#	43559
#	63821
#	80441
#	92594
#	116264
#	130253
#	141758
#	162591
#	175413
#
# Disc length: 2480 seconds
#
# Revision: 0
# Processed by: cddbd v1.5.2PL0 Copyright (c) Steve Scherf et al.
# Submitted via: CDex 1.51
#
DISCID=9309ae0c
DTITLE=Lee Hazlewood - 20th Century Lee
DYEAR=1976
DGENRE=Country
TTITLE0=Lee Hazlewood - 01 - Long Haired Country Boy
TTITLE1=Lee Hazlewood - 02 - That's How I Got To Memph
TTITLE2=Lee Hazlewood - 03 - In A Young Girl's Mind
TTITLE3=Lee Hazlewood - 04 - The Ballad Of Lucy Jordan
TTITLE4=Lee Hazlewood - 05 - An Old Lullaby
TTITLE5=Lee Hazlewood - 06 - The Fool
TTITLE6=Lee Hazlewood - 07 - Indian Summer (L'été Indi
TTITLE7=Lee Hazlewood - 08 - My Girl Bill
TTITLE8=Lee Hazlewood - 09 - Crazy Mama
TTITLE9=Lee Hazlewood - 10 - Whole Lotta Shakin' Goin'
TTITLE10=Lee Hazlewood - 11 - To Ramona
TTITLE11=Lee Hazlewood - 12 - Brevet Från Lillan
EXTD=YEAR: 1976
EXTT0=
EXTT1=
EXTT2=
EXTT3=
EXTT4=
EXTT5=
EXTT6=
EXTT7=
EXTT8=
EXTT9=
EXTT10=
EXTT11=
PLAYORDER=
